<?xml version="1.0" standalone="yes"?>
<svg width="259" height="194">
<path style="fill:#ffffff; stroke:none;" d="M0 0L0 21L1 21C2.74821 11.3127 11.3126 2.7482 21 1L0 0z"/>
<path style="fill:#e0807e; stroke:none;" d="M21.6667 0.333328L22.3333 0.666672L21.6667 0.333328z"/>
<path style="fill:#c5221f; stroke:none;" d="M59 94L59 41C59 34.6122 60.9907 24.2197 58.3966 18.3248C56.6968 14.4623 51.2642 11.6813 48 9.26929C36.2147 0.560699 20.1856 -4.32664 8.09336 7.18518C-1.00745 15.8492 -2.7177 36.1785 0.317901 47.9853C1.92511 54.2365 11.1512 58.7368 16 62.3735C30.106 72.953 44.0014 84.7426 59 94z"/>
<path style="fill:#dd7a78; stroke:none;" d="M29 0L29 1L32 1L29 0z"/>
<path style="fill:#ffffff; stroke:none;" d="M32 0L32 1C41.1788 3.1002 48.5621 10.5829 56 15.9892C72.1561 27.7323 88.0215 39.8896 104 51.8735C109.717 56.1613 122.543 69.8456 130 69.1335C137.546 68.413 148.037 57.0988 154 52.6265C169.999 40.6272 186.024 28.6592 202 16.6258C209.506 10.9718 217.488 2.7166 227 1L208 0L169 0L32 0z"/>
<path style="fill:#fbbc04; stroke:none;" d="M200 94C215.561 85.1342 229.672 72.3723 244 61.6265C248.641 58.1461 257.141 53.9794 258.682 47.9853C261.742 36.0844 260.269 15.8563 250.907 7.21297C238.363 -4.36719 223.111 0.21962 211 9.0108C207.666 11.4311 202.295 14.3652 200.603 18.3002C198.038 24.2667 200 34.5572 200 41L200 94z"/>
<path style="fill:#fee395; stroke:none;" d="M236.667 0.333328L237.333 0.666672L236.667 0.333328z"/>
<path style="fill:#ffffff; stroke:none;" d="M238 0L238 1C247.961 4.39166 255.466 10.4279 258 21L259 21L259 0L238 0z"/>
<path style="fill:#de6a68; stroke:none;" d="M17.6667 1.33333L18.3333 1.66667L17.6667 1.33333z"/>
<path style="fill:#ecb4b3; stroke:none;" d="M34.6667 1.33333L35.3333 1.66667L34.6667 1.33333z"/>
<path style="fill:#de6a68; stroke:none;" d="M1.33333 17.6667L1.66667 18.3333L1.33333 17.6667z"/>
<path style="fill:#ea4335; stroke:none;" d="M59 18L59 72L60.0278 93.9097L75 106.373L111 133.373L129 145.342L147 134.127L183 107.127L198.972 93.9097L200 72L200 18C182.313 28.0775 166.294 42.6731 150 54.8735C144.957 58.6494 136.39 67.8662 130 68.5023C123.945 69.105 114.575 59.0578 110 55.6265C93.3991 43.1759 77.0271 28.271 59 18z"/>
<path style="fill:#dd7a78; stroke:none;" d="M0.333333 21.6667L0.666667 22.3333L0.333333 21.6667z"/>
<path style="fill:#4285f4; stroke:none;" d="M0 50L0 152C0 163.189 -3.46667 181.416 6.10494 189.606C10.9136 193.72 17.1035 193 23 193L58 193L58 122L56.9722 93.1844L39 78.7099L0 50z"/>
<path style="fill:#34a853; stroke:none;" d="M258 50L219 79.6265L202.028 93.3002L201 122L201 193L236 193C241.896 193 248.086 193.72 252.895 189.606C261.82 181.969 259 166.422 259 156L259 82C259 72.6777 261.607 58.5964 258 50z"/>
<path style="fill:#71a3ff; stroke:none;" d="M58 94L58 193L13 193L13 194L59 194L59 125L58 94z"/>
<path style="fill:#ffffff; stroke:none;" d="M59 94L59 194L199 194L199 96C181.154 101.919 163.04 121.347 148 132.627C143.587 135.936 135.33 144.906 129.884 145.63C125.013 146.277 114.821 135.493 111 132.627C93.8842 119.79 77.1556 105.306 59 94z"/>
<path style="fill:#e8f5ec; stroke:none;" d="M199 94L199 194L200 194L200 125L199 94z"/>
<path style="fill:#68bf7d; stroke:none;" d="M200 94L200 194L243 194L243 193L201 193L201 124L200 94z"/>
<path style="fill:#f89c95; stroke:none;" d="M128 146L128 147L131 147L128 146z"/>
<path style="fill:#ffffff; stroke:none;" d="M0 179L0 194L13 194L13 193C5.98142 189.913 3.57482 185.316 0 179z"/>
<path style="fill:#b3debe; stroke:none;" d="M258.333 179.667L258.667 180.333L258.333 179.667z"/>
<path style="fill:#ffffff; stroke:none;" d="M258 181C255.34 187.048 251.401 191.099 245 193L245 194L259 194L258 181z"/>
<path style="fill:#a2d8b1; stroke:none;" d="M243.667 193.333L244.333 193.667L243.667 193.333z"/>
</svg>
