<?xml version="1.0" standalone="no"?>
<!DOCTYPE svg PUBLIC "-//W3C//DTD SVG 20010904//EN"
 "http://www.w3.org/TR/2001/REC-SVG-20010904/DTD/svg10.dtd">
<svg version="1.0" xmlns="http://www.w3.org/2000/svg"
 width="24.000000pt" height="24.000000pt" viewBox="0 0 24.000000 24.000000"
 preserveAspectRatio="xMidYMid meet">

<g transform="translate(0.000000,24.000000) scale(0.100000,-0.100000)"
fill="#000000" stroke="none">
<path d="M43 204 c-3 -9 -1 -25 5 -35 7 -10 12 -32 12 -49 0 -17 -5 -39 -12
-49 -15 -24 -4 -51 22 -51 26 0 37 27 22 51 -17 26 -17 26 31 47 23 11 50 28
60 40 25 28 19 57 -13 57 -22 0 -25 -4 -25 -33 0 -28 -5 -36 -32 -47 -29 -12
-33 -12 -33 1 0 8 5 23 12 33 15 24 4 51 -22 51 -11 0 -23 -7 -27 -16z m37
-14 c0 -5 -4 -10 -10 -10 -5 0 -10 5 -10 10 0 6 5 10 10 10 6 0 10 -4 10 -10z
m100 0 c0 -5 -4 -10 -10 -10 -5 0 -10 5 -10 10 0 6 5 10 10 10 6 0 10 -4 10
-10z m-100 -140 c0 -5 -4 -10 -10 -10 -5 0 -10 5 -10 10 0 6 5 10 10 10 6 0
10 -4 10 -10z"/>
</g>
</svg>
